<svg xmlns="http://www.w3.org/2000/svg" data-name="Layer 1" viewBox="0 0 95 118.75" x="0px" y="0px"><path d="M88.923,22.828a1.291,1.291,0,0,0-1.008-1.156c-7.847-1.735-12.59-6.7-14.928-15.628a1.294,1.294,0,0,0-.772-.873,59.432,59.432,0,0,0-43.744,0,1.293,1.293,0,0,0-.773.873c-2.337,8.928-7.081,13.893-14.927,15.628a1.291,1.291,0,0,0-1.009,1.156A85,85,0,0,0,16.449,58.24,18.493,18.493,0,1,0,37.877,87.53a52.486,52.486,0,0,0,12.012,6.388,1.3,1.3,0,0,0,.908,0C64.169,88.9,74.81,78.761,81.569,64.6A82.788,82.788,0,0,0,88.923,22.828ZM24.3,90.9A15.913,15.913,0,1,1,40.209,74.988,15.932,15.932,0,0,1,24.3,90.9Zm1.318-34.362A73.984,73.984,0,0,1,20.669,28.7c6.791-3.037,11.7-8.486,14.605-16.215a50.54,50.54,0,0,1,30.138,0c2.9,7.729,7.813,13.178,14.6,16.215.231,19.506-7.38,45.316-29.673,55.477a43.205,43.205,0,0,1-8.074-4.819A18.5,18.5,0,0,0,25.613,56.539Zm24.73,34.787A49.812,49.812,0,0,1,39.5,85.512a18.5,18.5,0,0,0,1.933-3.561,45.742,45.742,0,0,0,8.392,4.823,1.286,1.286,0,0,0,1.041,0c10.447-4.6,18.926-13.08,24.518-24.522a75.759,75.759,0,0,0,7.2-34.44,1.292,1.292,0,0,0-.8-1.164c-6.672-2.745-11.436-8-14.16-15.634a1.292,1.292,0,0,0-.813-.793,53.116,53.116,0,0,0-32.937,0,1.294,1.294,0,0,0-.813.793C30.338,18.643,25.573,23.9,18.9,26.648a1.292,1.292,0,0,0-.8,1.164,76.975,76.975,0,0,0,4.747,28.736,18.4,18.4,0,0,0-3.989.759,82.342,82.342,0,0,1-4.592-33.338c8.046-2.085,13.211-7.538,15.757-16.631a57.231,57.231,0,0,1,40.637,0c2.547,9.093,7.711,14.546,15.758,16.631C88.165,49.277,77.686,80.761,50.343,91.326Zm0-52.46a9.013,9.013,0,1,0-9.013-9.013A9.023,9.023,0,0,0,50.343,38.866Zm0-15.442a6.43,6.43,0,1,1-6.43,6.429A6.436,6.436,0,0,1,50.343,23.424ZM66.009,56.443a15.667,15.667,0,1,0-31.333,0,1.291,1.291,0,0,0,1.292,1.291h28.75A1.291,1.291,0,0,0,66.009,56.443ZM37.323,55.151a13.084,13.084,0,0,1,26.04,0ZM33.38,68.667a1.292,1.292,0,0,1,.006,1.827L22.644,81.3a1.3,1.3,0,0,1-.915.381h0a1.292,1.292,0,0,1-.913-.378L15.208,75.7a1.292,1.292,0,0,1,1.827-1.827l4.69,4.691,9.828-9.89A1.293,1.293,0,0,1,33.38,68.667Z"/></svg>